<svg viewBox="0 -26 511.99995 511" xmlns="http://www.w3.org/2000/svg"><path d="m391.992188 340.492188c5.519531 0 10-4.480469 10-10 0-5.519532-4.480469-10-10-10-5.519532 0-10 4.480468-10 10 0 5.519531 4.480468 10 10 10zm0 0"/><path d="m510.71875 445.609375-245.996094-439.988281c-1.765625-3.164063-5.105468-5.121094-8.726562-5.121094-3.625 0-6.960938 1.957031-8.730469 5.121094l-245.996094 439.988281c-1.730469 3.097656-1.691406 6.878906.105469 9.9375 1.792969 3.0625 5.078125 4.941406 8.625 4.941406h491.988281c7.628907 0 12.449219-8.222656 8.730469-14.878906zm-254.722656-414.617187 105.949218 189.503906h-211.902343zm-228.949219 409.496093 105.949219-189.503906 105.949218 189.503906zm122.996094-199.992187h211.902343l-105.949218 189.5zm123 199.992187 105.949219-189.503906 105.949218 189.503906zm0 0"/><path d="m401.570312 370.808594 24.261719 44.46875c2.65625 4.871094 8.738281 6.625 13.566407 3.992187 4.847656-2.644531 6.636718-8.71875 3.992187-13.566406l-24.261719-44.46875c-2.644531-4.851563-8.71875-6.632813-13.566406-3.992187-4.847656 2.644531-6.636719 8.71875-3.992188 13.566406zm0 0"/></svg>